 <svg xmlns="http://www.w3.org/2000/svg"
          viewBox="0 0 780 155"
          width="100%"
        >
          <path
            fill="#008693"
            d="M315.4 18.8l-2.6 18c-.2 1.5-.1 2.6.4 3.1s1.5.8 3 .8h4.8l.3 4.9c-2.4.6-5 .9-7.5.8-2.8 0-4.9-.8-6.1-2.4s-1.7-3.8-1.3-6.8l2.6-18.6h-5.8l.6-4.6 6-.3 1.4-9.4h6.2l-1.3 9.4h9.9l-.7 4.9h-9.9zM340.8 0l-1.6 12.6c-.4 2.7-.9 5.3-1.6 7.9 5.6-5 10.5-7.4 14.8-7.4 2.3-.2 4.6.7 6.2 2.3 1.4 1.5 1.9 3.8 1.5 6.7L356.7 46h-6.3l3.1-22.3c.3-2 .2-3.4-.2-4.1s-1.3-1-2.7-1c-2 .1-3.9.6-5.6 1.6-2.7 1.6-5.2 3.4-7.7 5.4l-2.8 20.5H328L334.5 0h6.3zm32.7 28.9l10.7-1c1.6 0 3.1-.4 4.4-1.3 1.1-1 1.7-2.3 1.8-3.8.3-2-.1-3.3-1-3.8s-2.9-.7-5.7-.7c-3.3 0-5.7.7-7.1 2.1s-2.4 4.2-3.1 8.5M393 40.6l.4 4.3c-3.1 1.2-7.5 1.8-13.2 1.8-5.5 0-9.3-1.4-11.4-4.3-2.1-2.9-2.8-7.3-2-13.4.8-6.2 2.5-10.4 5.1-12.6s6.8-3.4 12.6-3.4c5 0 8.4.9 10.2 2.6 1.8 1.7 2.5 4.3 2 7.7-.5 3.1-1.8 5.4-3.7 6.7s-4.9 2.2-8.9 2.5l-11.1 1c0 3 .6 5.1 1.9 6.1s3.4 1.6 6.2 1.6c4.1.2 8-.1 11.9-.6m-98.5 71.1H285l-1.2-5.9c-4.4 4.5-10.4 7-16.7 7-13 0-18.5-9-18.5-30.2 0-22.9 6.9-29.9 26-29.9 6-.2 12 .5 17.8 2l-1 9.4c-5.7-.3-11.3-.4-16.4-.4-9.7 0-12.9 2.5-12.9 19.3 0 14.4 2.3 18.9 9.5 18.9 3.7-.1 7.3-1.1 10.4-2.9V78.2h12.4l.1 33.5zm42.5 0L332.6 94c-1.1-3.7-2.8-4.9-6.2-4.9h-9v22.6h-12.6v-58c7.3-.7 14.7-.9 22.1-.8 15.1 0 21.4 3.9 21.4 17.1 0 8.2-2.9 13.4-11.1 14.4v.4c2.9.7 6.9 2.8 8.2 8.7l5 18.1-13.4.1zm-10.3-32.6c6.7 0 8.7-1.8 8.7-8.2s-2-8.2-8.7-8.2l-9.2.1v16.3h9.2zm71.3 32c-7.9.8-17.9.8-26.9.8-7.7 0-12.7-4.5-12.8-11.7V65.1c.1-7.1 5-11.7 12.8-11.7 9 0 19 0 26.9.8l-.6 9.5h-22.3c-2.8 0-4 1.3-4 4.3v8.8h23.1V86h-23.1v11.2c0 3.1 1.2 4.4 4 4.4h22.3l.6 9.5zm48.4 0c-7.9.8-17.9.8-26.9.8-7.7 0-12.7-4.5-12.8-11.7V65.1c.1-7.1 5-11.7 12.8-11.7 9 0 19 0 26.9.8l-.6 9.5h-22.3c-2.8 0-4 1.3-4 4.3v8.8h23.1V86h-23.1v11.2c0 3.1 1.2 4.4 4 4.4h22.3l.6 9.5zm58.1-4.1c0 3-1.5 4.6-4.5 4.6h-8c-2.7 0-3.9-1.3-5.1-3.8L471.6 77c-1.4-2.9-2.6-5.9-3.5-9h-.9c.4 3.1.6 6.2.6 9.2v34.4h-12.2V58.3c0-3 1.6-4.6 4.6-4.6h7.8c2.7 0 3.9 1.3 5.1 3.8l14.7 30c1.3 2.5 2.9 6.1 4.2 9.3h.8c-.3-3.3-.5-6.5-.5-9.7V53.7h12.1l.1 53.3zM556 54.6l-1.1 9.6c-5.5-.3-9-.4-16.3-.4-8.4 0-10.9 4.3-10.9 18.9s2.5 18.9 10.9 18.9c5.8.1 11.7-.1 17.5-.8l1.1 9.5c-5.4 1.7-10.2 2.3-18.6 2.3-17.9 0-24.4-7.9-24.4-30s6.5-30 24.4-30c8.2.1 12.2.7 17.4 2zM578 97c0 3 1.3 4.3 4.5 4.3h19.9l.6 9.7c-8.2.7-16.3 1-24.5.9-9.3 0-13.3-5.2-13.3-12.3V53.7H578V97zm79-14.3c0 23.3-6.5 30.1-24.9 30.1s-24.8-6.8-24.8-30.1 6.5-30.1 24.8-30.1S657 59.4 657 82.7zm-36.2 0c0 15.4 2.6 19.7 11.3 19.7s11.3-4.4 11.3-19.7S640.8 63 632.1 63s-11.3 4.3-11.3 19.7zm91.9 5.9c0 17.7-6 24.2-22.6 24.2-17.5 0-23.8-6.5-23.8-24.2V53.7h12.8v34.9c0 10.7 2.5 13.9 10.4 13.9 7.7 0 10.3-3.2 10.3-13.9V53.7h12.8v34.9zm58.5-5.9c0 22.9-6.5 29.7-24.7 29.7-8.7 0-15.9-.3-22.5-.8v-58c6.6-.4 13.7-.8 22.5-.8 18.2.1 24.7 6.9 24.7 29.9zm-13.4 0c0-15.2-2.6-19.7-11.3-19.7-3.7 0-6.8.1-9.8.1v39.2c2.9 0 6.2.1 9.8.1 8.6-.1 11.3-4.5 11.3-19.7zM85.3 135.2C81.5 81.6 66 57.9 60.4 51c-11.1 30.6-1 64.7 24.9 84.2z"
            class="st0"
          ></path>
          <path
            fill="#008693"
            d="M166.1 140.7c-14-17.7-11-43.3 6.6-57.3 8.7-6.9 19.9-10 31-8.4-.8-40.8-34.5-73.3-75.3-72.5-28 .5-53.2 16.8-65.3 42 30.4 6.9 49.5 37.2 42.6 67.6-2.3 10.2-7.4 19.6-14.8 27.1 22.9 14.1 51.7 14.7 75.2 1.5zm-84.7-.9C53.7 118.6 42.9 82 54.7 49.2c-1.4-.1-2.7-.2-4.1-.2C22.6 49 0 71.7 0 99.6c0 27.9 22.6 50.6 50.5 50.6 11.2 0 22-3.7 30.9-10.4z"
            class="st0"
          ></path>
          <path
            fill="#008693"
            d="M62.5 50.5c6.2 7.8 20.9 31.5 24.7 84 19.3-20.2 18.5-52.2-1.7-71.5-6.4-6.1-14.4-10.4-23-12.5zm170.4 64.8c0-14.9-9.4-28.1-23.5-33-1.8 23.9-14.3 45.8-34 59.5 14.6 12.5 36.6 10.8 49.2-3.8 5.4-6.3 8.4-14.4 8.3-22.7z"
            class="st0"
          ></path>
          <path
            fill="#008693"
            d="M172 137c18.5-12.9 30.2-33.5 31.6-56.1-.4-.1-.8-.1-1.2-.1-9 7.3-27.5 25.8-30.4 56.2z"
            class="st0"
          ></path>
          <path
            fill="#008693"
            d="M199.6 80.5c-.5 0-1-.1-1.5-.1-19.3 0-34.9 15.6-34.9 34.8 0 7.5 2.4 14.8 6.9 20.9 3-29 20-47.3 29.5-55.6z"
            class="st0"
          ></path>
        </svg>